<svg xmlns="http://www.w3.org/2000/svg"
shape-rendering="geometricPrecision"
width="4000" height="4000" viewBox="0 0 1024 1024">
<path d="
M 295.862 436.088
C 296.915 429.44 304.229 425.392 310.496 425.599
C 316.137 425.785 321.827 427.09 327.368 428.073
C 333.282 429.123 339.216 430.055 345.136 431.07
C 350.717 432.026 356.331 432.788 361.917 433.719
C 364.543 434.156 367.407 434.271 369.947 435.084
C 375.6 436.891 379.803 443.456 378.852 449.29
C 377.925 454.975 371.158 459.707 365.558 459.329
C 355.552 458.654 345.405 456.288 335.534 454.571
C 325.987 452.911 316.044 451.915 306.654 449.523
C 300.754 448.02 294.803 442.769 295.862 436.088 Z"
opacity="1" fill="rgb(191,147,52)" fill-rule="evenodd" />
<path d="
M 363.455 320.113
C 363.87 309.917 374.841 305.403 383.003 311.035
C 387.598 314.207 391.143 319.125 394.859 323.231
C 402.763 331.965 410.358 340.992 418.276 349.711
C 422.816 354.71 428.954 359.897 428.271 367.276
C 427.411 376.583 416.655 381.131 409.04 375.993
C 403.688 372.381 399.524 366.492 395.279 361.705
C 388.055 353.558 380.722 345.51 373.552 337.312
C 369.346 332.502 363.172 327.091 363.455 320.113 Z"
opacity="1" fill="rgb(191,146,51)" fill-rule="evenodd" />
<path d="
M 395.426 458.6
C 397.016 451.01 398.259 443.522 400.993 436.206
C 407.932 417.637 420.346 400.796 435.64 388.245
C 465.219 363.97 506.631 357.489 542.475 370.522
C 551.837 373.926 560.663 379.017 568.691 384.871
C 576.227 390.367 583.461 396.89 589.258 404.233
C 597.064 414.121 603.965 425.05 608.148 436.998
C 610.992 445.12 612.103 453.307 613.659 461.698
C 608.186 461.364 601.902 462.811 596.563 463.913
C 595.06 464.223 593.51 464.385 592.035 464.82
C 591.657 464.931 590.729 465.402 590.419 465.106
C 589.94 456.996 586.616 448.344 583.393 440.974
C 574.268 420.109 557.21 402.378 535.893 393.858
C 522.925 388.676 508.845 387.026 494.988 388.362
C 488.198 389.017 481.426 390.884 475.042 393.223
C 453.072 401.275 435.265 418.899 425.656 440.086
C 422.005 448.138 420.294 456.379 418.351 464.922
C 416.239 465.321 413.216 464.011 411.087 463.629
C 405.829 462.685 400.509 462.147 395.223 461.421
C 395.174 460.468 395.279 459.541 395.426 458.6 Z"
opacity="1" fill="rgb(192,146,52)" fill-rule="evenodd" />
<path d="
M 492.395 275.092
C 493.56 265.399 504.934 258.801 512.629 266.468
C 514.084 267.918 515.224 269.827 515.973 271.732
C 516.909 274.112 516.833 276.714 516.908 279.23
C 517.029 283.321 517.09 287.407 517.095 291.502
C 517.107 301.67 517.028 311.842 516.98 322.006
C 516.958 326.784 517.802 332.524 516.524 337.16
C 513.859 346.833 501.3 349.555 495.085 341.64
C 494.241 340.564 493.342 339.349 492.92 338.034
C 491.976 335.095 492.136 331.903 492.129 328.853
C 492.12 324.571 492.141 320.288 492.154 316.005
C 492.179 307.173 492.153 298.34 492.174 289.507
C 492.186 284.756 491.827 279.818 492.395 275.092 Z"
opacity="1" fill="rgb(192,147,51)" fill-rule="evenodd" />
<path d="
M 580.868 364.089
C 581.857 357.767 587.927 352.999 591.866 348.386
C 598.348 340.797 605.122 333.451 611.768 326.011
C 614.799 322.618 617.911 319.366 621.091 316.111
C 622.831 314.33 624.402 312.32 626.504 310.939
C 630.852 308.085 637.752 307.838 641.679 311.527
C 644.522 314.199 645.595 318.09 645.312 321.887
C 644.839 328.221 638.951 333.49 634.949 337.947
C 627.709 346.008 620.4 354.031 613.231 362.155
C 610.503 365.247 607.756 368.331 604.94 371.344
C 603.336 373.06 601.754 375.039 599.707 376.241
C 590.928 381.395 579.218 374.642 580.868 364.089 Z"
opacity="1" fill="rgb(192,147,51)" fill-rule="evenodd" />
<path d="
M 629.966 447.105
C 630.273 441.8 634.006 436.406 639.257 434.977
C 642.012 434.227 644.929 434.043 647.742 433.591
C 653.609 432.648 659.465 431.631 665.337 430.724
C 676.183 429.047 687.195 426.361 698.173 425.809
C 704.753 425.478 713.358 429.922 713.066 437.492
C 712.751 445.67 705.21 449.012 698.297 450.136
C 686.024 452.133 673.786 454.377 661.515 456.405
C 655.289 457.433 648.801 459.065 642.472 459.112
C 636.334 459.156 629.594 453.529 629.966 447.105 Z"
opacity="1" fill="rgb(192,148,53)" fill-rule="evenodd" />
</svg>